P1
25 17
1111111111111111111111111
1100000000000000000000011
1010000000000000000000101
1001100000000000000011001
1000110000000000000110001
1000011000000000001100001
1000001100000000011000001
1000000011000001100000001
1000000011100011100000001
1000001110111110111000001
1000011000011100001100001
1000110000000000000110001
1001100000000000000011001
1011000000000000000001101
1110000000000000000000111
1100000000000000000000011
1111111111111111111111111